<mxfile host="65bd71144e">
    <diagram id="aMBJo8B2CP7XLML57Bja" name="Page-1">
        <mxGraphModel dx="803" dy="727" grid="0" gridSize="10" guides="1" tooltips="1" connect="1" arrows="1" fold="1" page="1" pageScale="1" pageWidth="1200" pageHeight="1000" background="#000000" math="0" shadow="0">
            <root>
                <mxCell id="0"/>
                <mxCell id="1" parent="0"/>
                <mxCell id="80" value="" style="shape=image;imageAspect=0;aspect=fixed;verticalLabelPosition=bottom;verticalAlign=top;image=data:image/svg+xml,PHN2ZyB4bWxucz0iaHR0cDovL3d3dy53My5vcmcvMjAwMC9zdmciIGZpbGw9Im5vbmUiIHZpZXdCb3g9IjAgMCA4MCA2NCIgaGVpZ2h0PSI2NCIgd2lkdGg9IjgwIj4KPHBhdGggZmlsbD0iI0ZFQzI2NiIgZD0iTTYuNTE1NjIgNDQuMzk0NUgyMC44MDI3VjQ3LjE5NzNIOS4zMTgzNlY1Mi44MDI3SDE5LjEyMTFWNTUuNjA1NUg5LjMxODM2VjYxLjE5NzNIMjAuODAyN1Y2NEg2LjUxNTYyVjQ0LjM5NDVaTTQxLjgwMjcgNjEuMTk3M0M0MS44MDI3IDYxLjU4MDEgNDEuNzI5OCA2MS45NDQ3IDQxLjU4NCA2Mi4yOTFDNDEuNDM4MiA2Mi42MjgzIDQxLjIzNzYgNjIuOTI0NSA0MC45ODI0IDYzLjE3OTdDNDAuNzI3MiA2My40MzQ5IDQwLjQyNjQgNjMuNjM1NCA0MC4wODAxIDYzLjc4MTJDMzkuNzQyOCA2My45MjcxIDM5LjM4MjggNjQgMzkgNjRIMjcuODAyN0MyNy40MTk5IDY0IDI3LjA1NTMgNjMuOTI3MSAyNi43MDkgNjMuNzgxMkMyNi4zNzE3IDYzLjYzNTQgMjYuMDc1NSA2My40MzQ5IDI1LjgyMDMgNjMuMTc5N0MyNS41NjUxIDYyLjkyNDUgMjUuMzY0NiA2Mi42MjgzIDI1LjIxODggNjIuMjkxQzI1LjA3MjkgNjEuOTQ0NyAyNSA2MS41ODAxIDI1IDYxLjE5NzNWNDcuMTk3M0MyNSA0Ni44MTQ1IDI1LjA3MjkgNDYuNDU0NCAyNS4yMTg4IDQ2LjExNzJDMjUuMzY0NiA0NS43NzA4IDI1LjU2NTEgNDUuNDc0NiAyNS44MjAzIDQ1LjIyODVDMjYuMDc1NSA0NC45NzMzIDI2LjM3MTcgNDQuNzcyOCAyNi43MDkgNDQuNjI3QzI3LjA1NTMgNDQuNDcyIDI3LjQxOTkgNDQuMzk0NSAyNy44MDI3IDQ0LjM5NDVIMzlDMzkuMzgyOCA0NC4zOTQ1IDM5Ljc0MjggNDQuNDcyIDQwLjA4MDEgNDQuNjI3QzQwLjQyNjQgNDQuNzcyOCA0MC43MjcyIDQ0Ljk3MzMgNDAuOTgyNCA0NS4yMjg1QzQxLjIzNzYgNDUuNDc0NiA0MS40MzgyIDQ1Ljc3MDggNDEuNTg0IDQ2LjExNzJDNDEuNzI5OCA0Ni40NTQ0IDQxLjgwMjcgNDYuODE0NSA0MS44MDI3IDQ3LjE5NzNWNjEuMTk3M1pNMjcuODAyNyA0Ny4xOTczVjYxLjE5NzNIMzlWNDcuMTk3M0gyNy44MDI3Wk00OS42NTA0IDY0SDQ2Ljg0NzdWNDQuMzk0NUg0OS42NTA0TDYxLjQzNTUgNTkuNTk3N1Y0NC4zOTQ1SDY0LjIzODNWNjRINjEuNDM1NUw0OS42NTA0IDQ4Ljc5NjlWNjRaTTcyLjA3MjMgNDQuMzk0NVY2NEg2OS4yNjk1VjQ0LjM5NDVINzIuMDcyM1oiLz4KPHJlY3QgZmlsbD0iI0ZFQzI2NiIgaGVpZ2h0PSIyMCIgd2lkdGg9IjIwIi8+CjxyZWN0IGZpbGw9IiNGRUMyNjYiIGhlaWdodD0iMjAiIHdpZHRoPSIyMCIgeT0iMjAiIHg9IjYwIi8+CjxyZWN0IGZpbGw9IiNGRUMyNjYiIGhlaWdodD0iMjAiIHdpZHRoPSIyMCIgeT0iMjAiIHg9IjIwIi8+CjxyZWN0IGZpbGw9IiNGRUMyNjYiIGhlaWdodD0iMjAiIHdpZHRoPSIyMCIgeD0iNDAiLz4KPC9zdmc+;opacity=50;" vertex="1" parent="1">
                    <mxGeometry x="132.5" y="152.5" width="920" height="736" as="geometry"/>
                </mxCell>
                <mxCell id="14" style="edgeStyle=entityRelationEdgeStyle;html=1;exitX=1;exitY=0.5;exitDx=0;exitDy=0;entryX=0;entryY=0.5;entryDx=0;entryDy=0;fillColor=#dae8fc;strokeColor=#6c8ebf;strokeWidth=2;" parent="1" source="4" target="12" edge="1">
                    <mxGeometry relative="1" as="geometry"/>
                </mxCell>
                <mxCell id="4" value="OCR&lt;div&gt;&lt;br&gt;&lt;/div&gt;&lt;div&gt;- Read any text on screen via camera&lt;/div&gt;" style="rounded=0;whiteSpace=wrap;html=1;" parent="1" vertex="1">
                    <mxGeometry x="720" y="208" width="154" height="94" as="geometry"/>
                </mxCell>
                <mxCell id="15" style="edgeStyle=orthogonalEdgeStyle;html=1;exitX=1;exitY=0.5;exitDx=0;exitDy=0;entryX=0;entryY=0.5;entryDx=0;entryDy=0;fillColor=#dae8fc;strokeColor=#6c8ebf;strokeWidth=2;elbow=vertical;curved=1;" parent="1" source="5" target="13" edge="1">
                    <mxGeometry relative="1" as="geometry"/>
                </mxCell>
                <mxCell id="5" value="Object Regocnition&lt;div&gt;&lt;br&gt;&lt;/div&gt;&lt;div&gt;- use CV to get on screen objects using user&#39;s questions for image context&amp;nbsp;&lt;/div&gt;" style="rounded=0;whiteSpace=wrap;html=1;" parent="1" vertex="1">
                    <mxGeometry x="720" y="334.5" width="158" height="94" as="geometry"/>
                </mxCell>
                <mxCell id="25" style="edgeStyle=orthogonalEdgeStyle;html=1;exitX=0.5;exitY=1;exitDx=0;exitDy=0;entryX=0.5;entryY=0;entryDx=0;entryDy=0;fillColor=#dae8fc;strokeColor=#6c8ebf;strokeWidth=2;curved=1;" parent="1" source="32" target="28" edge="1">
                    <mxGeometry relative="1" as="geometry">
                        <mxPoint x="668" y="678.5" as="sourcePoint"/>
                    </mxGeometry>
                </mxCell>
                <mxCell id="23" style="edgeStyle=entityRelationEdgeStyle;html=1;exitX=1;exitY=0.5;exitDx=0;exitDy=0;fillColor=#dae8fc;strokeColor=#6c8ebf;strokeWidth=2;entryX=0;entryY=0.5;entryDx=0;entryDy=0;" parent="1" source="8" target="33" edge="1">
                    <mxGeometry relative="1" as="geometry">
                        <mxPoint x="227" y="362.5" as="targetPoint"/>
                    </mxGeometry>
                </mxCell>
                <mxCell id="37" style="edgeStyle=entityRelationEdgeStyle;html=1;exitX=1;exitY=0.5;exitDx=0;exitDy=0;entryX=0;entryY=0.5;entryDx=0;entryDy=0;fillColor=#dae8fc;strokeColor=#6c8ebf;strokeWidth=2;" parent="1" source="8" target="21" edge="1">
                    <mxGeometry relative="1" as="geometry"/>
                </mxCell>
                <mxCell id="8" value="Speech Regocnition&amp;nbsp;&lt;div&gt;&lt;br&gt;&lt;/div&gt;&lt;div&gt;- use speech recognition to recieve user input as question&amp;nbsp;&lt;/div&gt;" style="rounded=0;whiteSpace=wrap;html=1;" parent="1" vertex="1">
                    <mxGeometry x="245" y="201.5" width="152" height="107" as="geometry"/>
                </mxCell>
                <mxCell id="82" style="edgeStyle=orthogonalEdgeStyle;html=1;exitX=1;exitY=0.5;exitDx=0;exitDy=0;entryX=0.5;entryY=0;entryDx=0;entryDy=0;curved=1;fillColor=#dae8fc;strokeColor=#6c8ebf;strokeWidth=2;" edge="1" parent="1" source="12" target="32">
                    <mxGeometry relative="1" as="geometry">
                        <Array as="points">
                            <mxPoint x="1134" y="248"/>
                            <mxPoint x="1134" y="443"/>
                            <mxPoint x="894" y="443"/>
                        </Array>
                    </mxGeometry>
                </mxCell>
                <mxCell id="12" value="- preprocessing&amp;nbsp;&lt;div&gt;&lt;br&gt;&lt;/div&gt;&lt;div&gt;clean text and normalize&lt;/div&gt;&lt;div&gt;use as additional contect&amp;nbsp;&lt;/div&gt;&lt;div&gt;for image&lt;/div&gt;" style="shape=parallelogram;perimeter=parallelogramPerimeter;whiteSpace=wrap;html=1;fixedSize=1;" parent="1" vertex="1">
                    <mxGeometry x="967" y="205" width="165" height="86" as="geometry"/>
                </mxCell>
                <mxCell id="19" style="edgeStyle=orthogonalEdgeStyle;html=1;exitX=1;exitY=0.5;exitDx=0;exitDy=0;entryX=0.5;entryY=0;entryDx=0;entryDy=0;curved=1;fillColor=#dae8fc;strokeColor=#6c8ebf;strokeWidth=2;" parent="1" source="13" target="32" edge="1">
                    <mxGeometry relative="1" as="geometry">
                        <mxPoint x="668" y="585.5" as="targetPoint"/>
                        <Array as="points">
                            <mxPoint x="1108" y="358.5"/>
                            <mxPoint x="1108" y="465.5"/>
                            <mxPoint x="894" y="465.5"/>
                        </Array>
                    </mxGeometry>
                </mxCell>
                <mxCell id="13" value="- preprocessing&amp;nbsp;&lt;br&gt;&lt;br&gt;format image analysis&amp;nbsp;&lt;div&gt;into text&lt;/div&gt;" style="shape=parallelogram;perimeter=parallelogramPerimeter;whiteSpace=wrap;html=1;fixedSize=1;align=center;verticalAlign=middle;spacingLeft=3;spacingRight=11;" parent="1" vertex="1">
                    <mxGeometry x="950" y="312.5" width="165" height="91" as="geometry"/>
                </mxCell>
                <mxCell id="38" style="edgeStyle=orthogonalEdgeStyle;html=1;exitX=1;exitY=0.5;exitDx=0;exitDy=0;entryX=0.5;entryY=0;entryDx=0;entryDy=0;curved=1;fillColor=#dae8fc;strokeColor=#6c8ebf;strokeWidth=2;" parent="1" source="21" target="32" edge="1">
                    <mxGeometry relative="1" as="geometry"/>
                </mxCell>
                <mxCell id="75" style="edgeStyle=orthogonalEdgeStyle;html=1;exitX=1;exitY=0.5;exitDx=0;exitDy=0;entryX=0;entryY=0.5;entryDx=0;entryDy=0;curved=1;fillColor=#dae8fc;strokeColor=#6c8ebf;strokeWidth=2;" parent="1" source="21" target="5" edge="1">
                    <mxGeometry relative="1" as="geometry"/>
                </mxCell>
                <mxCell id="21" value="- preprocessing&amp;nbsp;&lt;div&gt;&lt;br&gt;&lt;/div&gt;&lt;div&gt;clean text and normalize&amp;nbsp;&lt;/div&gt;&lt;div&gt;into input and questions&amp;nbsp;&lt;/div&gt;" style="shape=parallelogram;perimeter=parallelogramPerimeter;whiteSpace=wrap;html=1;fixedSize=1;" parent="1" vertex="1">
                    <mxGeometry x="508" y="434.5" width="169" height="72" as="geometry"/>
                </mxCell>
                <mxCell id="43" style="edgeStyle=orthogonalEdgeStyle;html=1;exitX=0.5;exitY=1;exitDx=0;exitDy=0;entryX=0.5;entryY=0;entryDx=0;entryDy=0;curved=1;strokeWidth=2;fillColor=#dae8fc;strokeColor=#6c8ebf;" parent="1" source="44" target="42" edge="1">
                    <mxGeometry relative="1" as="geometry">
                        <mxPoint x="1036.5" y="769.5000000000002" as="sourcePoint"/>
                    </mxGeometry>
                </mxCell>
                <mxCell id="74" style="edgeStyle=orthogonalEdgeStyle;html=1;exitX=1;exitY=0.5;exitDx=0;exitDy=0;entryX=0;entryY=0.5;entryDx=0;entryDy=0;curved=1;fillColor=#dae8fc;strokeColor=#6c8ebf;strokeWidth=2;" parent="1" source="28" target="44" edge="1">
                    <mxGeometry relative="1" as="geometry"/>
                </mxCell>
                <mxCell id="28" value="LLM&lt;div&gt;&lt;br&gt;&lt;/div&gt;&lt;div&gt;- use formatted prompt to generate a respose from&amp;nbsp;&lt;/div&gt;&lt;div&gt;LLM&amp;nbsp;&lt;/div&gt;" style="rounded=0;whiteSpace=wrap;html=1;" parent="1" vertex="1">
                    <mxGeometry x="617" y="700.5" width="166" height="94" as="geometry"/>
                </mxCell>
                <mxCell id="31" style="edgeStyle=orthogonalEdgeStyle;html=1;exitX=1;exitY=0.5;exitDx=0;exitDy=0;entryX=0;entryY=0.5;entryDx=0;entryDy=0;curved=1;fillColor=#dae8fc;strokeColor=#6c8ebf;strokeWidth=2;" parent="1" source="30" target="8" edge="1">
                    <mxGeometry relative="1" as="geometry"/>
                </mxCell>
                <mxCell id="30" value="Start Input&lt;div&gt;&lt;br&gt;&lt;/div&gt;&lt;div&gt;- trigger start&lt;/div&gt;" style="ellipse;whiteSpace=wrap;html=1;fillColor=#d5e8d4;strokeColor=#82b366;" parent="1" vertex="1">
                    <mxGeometry x="56" y="208" width="120" height="80" as="geometry"/>
                </mxCell>
                <mxCell id="32" value="&lt;span style=&quot;color: rgb(0, 0, 0);&quot;&gt;Prompt&lt;/span&gt;&lt;br&gt;&lt;div&gt;&lt;br&gt;&lt;/div&gt;&lt;div&gt;- use OCR text along with context from image regocnized generate a stuctured&amp;nbsp;&lt;/div&gt;&lt;div&gt;prompt for LLM&lt;/div&gt;" style="shape=parallelogram;perimeter=parallelogramPerimeter;whiteSpace=wrap;html=1;fixedSize=1;spacing=6;" parent="1" vertex="1">
                    <mxGeometry x="756" y="526.5" width="275" height="102" as="geometry"/>
                </mxCell>
                <mxCell id="34" style="edgeStyle=orthogonalEdgeStyle;html=1;exitX=1;exitY=0.5;exitDx=0;exitDy=0;entryX=0;entryY=0.5;entryDx=0;entryDy=0;curved=1;fillColor=#dae8fc;strokeColor=#6c8ebf;strokeWidth=2;" parent="1" source="33" target="4" edge="1">
                    <mxGeometry relative="1" as="geometry"/>
                </mxCell>
                <mxCell id="33" value="End Input&lt;div&gt;&lt;br&gt;&lt;/div&gt;&lt;div&gt;- start next steps&lt;/div&gt;" style="ellipse;whiteSpace=wrap;html=1;fillColor=#fff2cc;strokeColor=#d6b656;" parent="1" vertex="1">
                    <mxGeometry x="547" y="258.5" width="120" height="80" as="geometry"/>
                </mxCell>
                <mxCell id="42" value="STOP&lt;div&gt;&lt;br&gt;&lt;/div&gt;&lt;div&gt;- end process and wait for next input&lt;/div&gt;" style="ellipse;whiteSpace=wrap;html=1;fillColor=#f8cecc;strokeColor=#b85450;" parent="1" vertex="1">
                    <mxGeometry x="792" y="850.5" width="133" height="83" as="geometry"/>
                </mxCell>
                <mxCell id="44" value="&lt;span style=&quot;color: rgb(0, 0, 0);&quot;&gt;- Text To speech&lt;/span&gt;&lt;div&gt;&lt;br&gt;&lt;/div&gt;&lt;div&gt;- use the output text to convert it to speech&lt;/div&gt;" style="shape=parallelogram;perimeter=parallelogramPerimeter;whiteSpace=wrap;html=1;fixedSize=1;" parent="1" vertex="1">
                    <mxGeometry x="939" y="705" width="156" height="85" as="geometry"/>
                </mxCell>
                <mxCell id="50" value="" style="rounded=1;whiteSpace=wrap;html=1;fillColor=#f5f5f5;fontColor=#333333;strokeColor=#666666;" parent="1" vertex="1">
                    <mxGeometry x="52" y="362.5" width="341" height="183" as="geometry"/>
                </mxCell>
                <mxCell id="51" value="Legends" style="rounded=0;whiteSpace=wrap;html=1;" parent="1" vertex="1">
                    <mxGeometry x="185.06" y="373.5" width="74.88" height="28" as="geometry"/>
                </mxCell>
                <mxCell id="52" value="" style="ellipse;whiteSpace=wrap;html=1;" parent="1" vertex="1">
                    <mxGeometry x="82.88" y="423.5" width="41" height="24" as="geometry"/>
                </mxCell>
                <mxCell id="53" value="" style="rounded=0;whiteSpace=wrap;html=1;" parent="1" vertex="1">
                    <mxGeometry x="75.88" y="464.5" width="55" height="26.5" as="geometry"/>
                </mxCell>
                <mxCell id="54" value="" style="shape=parallelogram;perimeter=parallelogramPerimeter;whiteSpace=wrap;html=1;fixedSize=1;" parent="1" vertex="1">
                    <mxGeometry x="69.82000000000001" y="507.5" width="67.12" height="24" as="geometry"/>
                </mxCell>
                <mxCell id="56" value="Triggers for events to start/ stop" style="text;html=1;align=center;verticalAlign=middle;resizable=0;points=[];autosize=1;strokeColor=none;fillColor=none;" parent="1" vertex="1">
                    <mxGeometry x="157" y="421.5" width="187" height="26" as="geometry"/>
                </mxCell>
                <mxCell id="57" value="AI models" style="text;html=1;align=center;verticalAlign=middle;resizable=0;points=[];autosize=1;strokeColor=none;fillColor=none;" parent="1" vertex="1">
                    <mxGeometry x="163" y="464.5" width="71" height="26" as="geometry"/>
                </mxCell>
                <mxCell id="58" value="intermediet steps" style="text;html=1;align=center;verticalAlign=middle;resizable=0;points=[];autosize=1;strokeColor=none;fillColor=none;" parent="1" vertex="1">
                    <mxGeometry x="163" y="507.5" width="109" height="26" as="geometry"/>
                </mxCell>
                <mxCell id="61" value="" style="endArrow=classic;html=1;dashed=1;" parent="1" edge="1">
                    <mxGeometry width="50" height="50" relative="1" as="geometry">
                        <mxPoint x="136.72" y="434.70000000000005" as="sourcePoint"/>
                        <mxPoint x="157" y="434.27" as="targetPoint"/>
                    </mxGeometry>
                </mxCell>
                <mxCell id="63" value="" style="endArrow=classic;html=1;dashed=1;" parent="1" edge="1">
                    <mxGeometry width="50" height="50" relative="1" as="geometry">
                        <mxPoint x="145" y="519.7" as="sourcePoint"/>
                        <mxPoint x="165.28" y="519.27" as="targetPoint"/>
                    </mxGeometry>
                </mxCell>
                <mxCell id="64" value="" style="endArrow=classic;html=1;dashed=1;" parent="1" edge="1">
                    <mxGeometry width="50" height="50" relative="1" as="geometry">
                        <mxPoint x="142.72" y="477.70000000000005" as="sourcePoint"/>
                        <mxPoint x="163" y="477.27" as="targetPoint"/>
                    </mxGeometry>
                </mxCell>
                <mxCell id="65" value="&lt;div&gt;&lt;b&gt;&lt;font style=&quot;font-size: 15px;&quot;&gt;&lt;br&gt;&lt;/font&gt;&lt;/b&gt;&lt;/div&gt;&lt;div&gt;&lt;br&gt;&lt;/div&gt;&lt;div&gt;&lt;b&gt;&lt;font style=&quot;font-size: 15px;&quot;&gt;&lt;br&gt;&lt;/font&gt;&lt;/b&gt;&lt;/div&gt;&lt;div&gt;&lt;b&gt;&lt;font style=&quot;font-size: 15px;&quot;&gt;&lt;br&gt;&lt;/font&gt;&lt;/b&gt;&lt;/div&gt;&lt;div&gt;&lt;font face=&quot;Helvetica&quot;&gt;&lt;b&gt;&lt;span style=&quot;color: rgb(0, 0, 0); font-size: medium; text-align: start; caret-color: rgb(0, 0, 0); background-color: transparent;&quot;&gt;Ensemble of Neural Intelligence&lt;/span&gt;&lt;font style=&quot;font-size: 15px;&quot;&gt;&amp;nbsp;Model 1.0&lt;/font&gt;&lt;/b&gt;&lt;/font&gt;&lt;/div&gt;&lt;div&gt;&lt;font style=&quot;font-size: 15px;&quot;&gt;&lt;br&gt;&lt;/font&gt;&lt;/div&gt;&lt;font style=&quot;font-size: 15px;&quot;&gt;This model will be a AI agent with real time processing capibalities. it will take a request from the user using speech, then it will scan the area for text and objects using the camera while asking the CV model questions from the user input to get the maximum context from the image plus any text the OCR can pickup. It will then add all 3 of these inputs the users origial question plus the image context and image text to then generate a structured promt for the LLM giving it as much context and details as possible before we use its output to be returned to the user to answer there question. This output is read back to the user as speach using text to speach.&lt;/font&gt;" style="rounded=1;whiteSpace=wrap;html=1;align=center;verticalAlign=middle;spacingLeft=10;spacingRight=10;fillColor=#f5f5f5;fontColor=#333333;strokeColor=#666666;" parent="1" vertex="1">
                    <mxGeometry x="50" y="578.5" width="345" height="392.5" as="geometry"/>
                </mxCell>
                <mxCell id="66" value="&lt;font style=&quot;font-size: 16px;&quot;&gt;Info&lt;/font&gt;" style="rounded=0;whiteSpace=wrap;html=1;" parent="1" vertex="1">
                    <mxGeometry x="158" y="602.5" width="119" height="41" as="geometry"/>
                </mxCell>
                <mxCell id="70" value="&lt;font style=&quot;font-size: 16px; color: rgb(255, 255, 255);&quot;&gt;Copyright Haider Malik 2025&lt;/font&gt;" style="text;html=1;align=center;verticalAlign=middle;resizable=0;points=[];autosize=1;strokeColor=none;fillColor=none;" parent="1" vertex="1">
                    <mxGeometry x="967" y="952" width="220" height="31" as="geometry"/>
                </mxCell>
                <mxCell id="81" value="" style="shape=image;imageAspect=0;aspect=fixed;verticalLabelPosition=bottom;verticalAlign=top;image=data:image/svg+xml,PHN2ZyB4bWxucz0iaHR0cDovL3d3dy53My5vcmcvMjAwMC9zdmciIGZpbGw9Im5vbmUiIHZpZXdCb3g9IjAgMCA4MCA2NCIgaGVpZ2h0PSI2NCIgd2lkdGg9IjgwIj4KPHBhdGggZmlsbD0iI0ZFQzI2NiIgZD0iTTYuNTE1NjIgNDQuMzk0NUgyMC44MDI3VjQ3LjE5NzNIOS4zMTgzNlY1Mi44MDI3SDE5LjEyMTFWNTUuNjA1NUg5LjMxODM2VjYxLjE5NzNIMjAuODAyN1Y2NEg2LjUxNTYyVjQ0LjM5NDVaTTQxLjgwMjcgNjEuMTk3M0M0MS44MDI3IDYxLjU4MDEgNDEuNzI5OCA2MS45NDQ3IDQxLjU4NCA2Mi4yOTFDNDEuNDM4MiA2Mi42MjgzIDQxLjIzNzYgNjIuOTI0NSA0MC45ODI0IDYzLjE3OTdDNDAuNzI3MiA2My40MzQ5IDQwLjQyNjQgNjMuNjM1NCA0MC4wODAxIDYzLjc4MTJDMzkuNzQyOCA2My45MjcxIDM5LjM4MjggNjQgMzkgNjRIMjcuODAyN0MyNy40MTk5IDY0IDI3LjA1NTMgNjMuOTI3MSAyNi43MDkgNjMuNzgxMkMyNi4zNzE3IDYzLjYzNTQgMjYuMDc1NSA2My40MzQ5IDI1LjgyMDMgNjMuMTc5N0MyNS41NjUxIDYyLjkyNDUgMjUuMzY0NiA2Mi42MjgzIDI1LjIxODggNjIuMjkxQzI1LjA3MjkgNjEuOTQ0NyAyNSA2MS41ODAxIDI1IDYxLjE5NzNWNDcuMTk3M0MyNSA0Ni44MTQ1IDI1LjA3MjkgNDYuNDU0NCAyNS4yMTg4IDQ2LjExNzJDMjUuMzY0NiA0NS43NzA4IDI1LjU2NTEgNDUuNDc0NiAyNS44MjAzIDQ1LjIyODVDMjYuMDc1NSA0NC45NzMzIDI2LjM3MTcgNDQuNzcyOCAyNi43MDkgNDQuNjI3QzI3LjA1NTMgNDQuNDcyIDI3LjQxOTkgNDQuMzk0NSAyNy44MDI3IDQ0LjM5NDVIMzlDMzkuMzgyOCA0NC4zOTQ1IDM5Ljc0MjggNDQuNDcyIDQwLjA4MDEgNDQuNjI3QzQwLjQyNjQgNDQuNzcyOCA0MC43MjcyIDQ0Ljk3MzMgNDAuOTgyNCA0NS4yMjg1QzQxLjIzNzYgNDUuNDc0NiA0MS40MzgyIDQ1Ljc3MDggNDEuNTg0IDQ2LjExNzJDNDEuNzI5OCA0Ni40NTQ0IDQxLjgwMjcgNDYuODE0NSA0MS44MDI3IDQ3LjE5NzNWNjEuMTk3M1pNMjcuODAyNyA0Ny4xOTczVjYxLjE5NzNIMzlWNDcuMTk3M0gyNy44MDI3Wk00OS42NTA0IDY0SDQ2Ljg0NzdWNDQuMzk0NUg0OS42NTA0TDYxLjQzNTUgNTkuNTk3N1Y0NC4zOTQ1SDY0LjIzODNWNjRINjEuNDM1NUw0OS42NTA0IDQ4Ljc5NjlWNjRaTTcyLjA3MjMgNDQuMzk0NVY2NEg2OS4yNjk1VjQ0LjM5NDVINzIuMDcyM1oiLz4KPHJlY3QgZmlsbD0iI0ZFQzI2NiIgaGVpZ2h0PSIyMCIgd2lkdGg9IjIwIi8+CjxyZWN0IGZpbGw9IiNGRUMyNjYiIGhlaWdodD0iMjAiIHdpZHRoPSIyMCIgeT0iMjAiIHg9IjYwIi8+CjxyZWN0IGZpbGw9IiNGRUMyNjYiIGhlaWdodD0iMjAiIHdpZHRoPSIyMCIgeT0iMjAiIHg9IjIwIi8+CjxyZWN0IGZpbGw9IiNGRUMyNjYiIGhlaWdodD0iMjAiIHdpZHRoPSIyMCIgeD0iNDAiLz4KPC9zdmc+;" vertex="1" parent="1">
                    <mxGeometry x="524.37" y="19" width="136.25" height="109" as="geometry"/>
                </mxCell>
                <mxCell id="83" value="ALT IDEA:&amp;nbsp;&lt;div&gt;have the question fed into LLM once then as kit to gen questions to ask CV model for image context feed back into LLM once again with answers + OCR + original user question&amp;nbsp;&lt;/div&gt;" style="rounded=0;whiteSpace=wrap;html=1;" vertex="1" parent="1">
                    <mxGeometry x="925" y="34" width="249" height="99" as="geometry"/>
                </mxCell>
            </root>
        </mxGraphModel>
    </diagram>
</mxfile>